<?xml version="1.0" standalone="no"?>
<!DOCTYPE svg PUBLIC "-//W3C//DTD SVG 20010904//EN"
 "http://www.w3.org/TR/2001/REC-SVG-20010904/DTD/svg10.dtd">
<svg version="1.0" xmlns="http://www.w3.org/2000/svg"
 width="800.000000pt" height="800.000000pt" viewBox="0 0 800.000000 800.000000"
 preserveAspectRatio="xMidYMid meet">
<metadata>
Created by potrace 1.14, written by Peter Selinger 2001-2017
</metadata>
<g transform="translate(0.000000,800.000000) scale(0.100000,-0.100000)"
fill="#000000" stroke="none">
<path d="M1357 5361 l-1357 -1359 1359 -1359 1359 -1360 641 641 641 641 634
-635 c349 -349 639 -636 645 -638 5 -2 619 607 1365 1353 l1357 1357 -1360
1359 -1360 1359 -640 -640 -641 -641 -640 641 c-353 352 -642 640 -643 639 -1
0 -613 -611 -1360 -1358z m5114 -2549 l-1189 -1189 -556 556 -556 556 630 630
c347 346 630 633 630 637 0 4 -283 291 -630 637 l-630 630 556 556 556 555
1189 -1189 1189 -1190 -1189 -1189z m-3191 3008 l550 -551 -630 -630 c-347
-347 -630 -634 -630 -638 0 -4 281 -288 625 -631 344 -344 625 -629 625 -635
0 -5 -248 -258 -551 -561 l-551 -551 -1189 1189 -1189 1189 1182 1184 c651
651 1189 1184 1195 1185 7 0 260 -248 563 -550z m1810 -1818 c0 -4 -245 -252
-545 -552 l-545 -545 -545 545 c-300 300 -545 548 -545 552 0 4 245 252 545
552 l545 545 545 -545 c300 -300 545 -548 545 -552z"/>
</g>
</svg>
